<svg width="124" height="124" viewBox="0 0 124 124" fill="none" xmlns="http://www.w3.org/2000/svg">
<path d="M62 7.75C36.3181 7.75 15.5 28.5681 15.5 54.25C15.5 67.0863 20.701 78.709 29.1129 87.1232C37.5271 95.542 57.35 107.725 58.5125 120.513C58.6868 122.43 60.0749 124 62 124C63.9251 124 65.3132 122.43 65.4875 120.513C66.65 107.725 86.4729 95.542 94.8871 87.1232C103.299 78.709 108.5 67.0863 108.5 54.25C108.5 28.5681 87.6819 7.75 62 7.75Z" fill="#284E35"/>
<g clip-path="url(#clip0_395_23)">
<path fill-rule="evenodd" clip-rule="evenodd" d="M42 39.0263C42 34.0412 46.0439 30 51.0323 30H81.5117C81.7814 30 82 30.2184 82 30.4879C82 35.2035 78.1747 39.0263 73.456 39.0263H55.6774H55.5484C53.0542 39.0263 51.0323 41.0469 51.0323 43.5395V43.6684V78.5121C51.0323 78.7816 50.8137 79 50.544 79C45.8253 79 42 75.1772 42 70.4616V39.0263Z" fill="#EE7103"/>
<path d="M82.0005 66.75C82.0005 59.9845 76.5124 54.5 69.7424 54.5C62.9725 54.5 57.4844 59.9845 57.4844 66.75C57.4844 73.5155 62.9725 79 69.7424 79C76.5124 79 82.0005 73.5155 82.0005 66.75Z" fill="#FA471F"/>
</g>
<defs>
<clipPath id="clip0_395_23">
<rect width="40" height="49" fill="white" transform="translate(42 30)"/>
</clipPath>
</defs>
</svg>
